<svg id="done" version="1.1" viewBox="0.0 0.0 100.0 100.0" fill="none"
  stroke="none" stroke-linecap="square" stroke-miterlimit="10"
  clip-path="url(#clip0)" xmlns="http://www.w3.org/2000/svg"
  xmlns:xlink="http://www.w3.org/1999/xlink"><clipPath
  id="clip0"><path d="M0 0L100.0 0L100.0 100.0L0 100.0L0 0Z"
  clip-rule="nonzero"></path></clipPath><path d="M14.265092
  49.78478L14.265092 49.78478C14.265092 29.250221 30.418095 12.603675
  50.343834 12.603675C70.26957 12.603675 86.42257 29.250221 86.42257
  49.78478C86.42257 70.319336 70.26957 86.96588 50.343834
  86.96588C30.418095 86.96588 14.265092 70.319336 14.265092 49.78478Z"
  fill-rule="nonzero" fill="#ffff00"></path><path d="M35.02707
  38.664875C35.02707 36.525856 36.709675 34.791843 38.785275
  34.791843C40.86087 34.791843 42.543476 36.525856 42.543476
  38.664875C42.543476 40.80389 40.86087 42.537903 38.785275
  42.537903C36.709675 42.537903 35.02707 40.80389 35.02707
  38.664875M58.144188 38.664875C58.144188 36.525856 59.826794
  34.791843 61.90239 34.791843C63.97799 34.791843 65.66059 36.525856
  65.66059 38.664875C65.66059 40.80389 63.97799 42.537903 61.90239
  42.537903C59.826794 42.537903 58.144188 40.80389 58.144188
  38.664875" fill-rule="nonzero" fill="#cbcb00" stroke="#000000"
  stroke-width="2.0" stroke-linejoin="round"
  stroke-linecap="butt"></path><path d="M30.78892 65.9997Q50.343834
79.84 69.85307 65.9997" fill-rule="nonzero" stroke="#000000"
stroke-width="2.0" stroke-linejoin="round"
stroke-linecap="butt"></path><path d="M14.265092 49.78478L14.265092
49.78478C14.265092 29.250221 30.418095 12.603675 50.343834
12.603675C70.26957 12.603675 86.42257 29.250221 86.42257
49.78478C86.42257 70.319336 70.26957 86.96588 50.343834
86.96588C30.418095 86.96588 14.265092 70.319336 14.265092 49.78478Z"
fill-rule="nonzero" stroke="#000000" stroke-width="2.0"
stroke-linejoin="round" stroke-linecap="butt"></path></svg>
